<?xml version="1.0" encoding="UTF-8"?>
<svg id="Layer_1" data-name="Layer 1" xmlns="http://www.w3.org/2000/svg" viewBox="0 0 355.17 126.92">
  <defs>
    <style>
      .cls-1 {
        fill: none;
      }

      .cls-2 {
        fill: #231f20;
      }

      .cls-3 {
        fill: #ecabbd;
      }

      .cls-4 {
        fill: #fff;
      }

      .cls-5 {
        fill: #f8ec8d;
      }

      .cls-6 {
        fill: #94323c;
      }

      .cls-7 {
        fill: #ec869a;
      }

      .cls-8 {
        fill: #d75364;
      }
    </style>
  </defs>
  <g>
    <path class="cls-3" d="M9.75,28.38c1.91-3.3,4.55-5.96,7.7-7.94,2.28-1.44,4.22-3.38,5.66-5.66,1.98-3.14,4.64-5.79,7.94-7.7,12.85-7.41,30.53-.84,39.48,14.68,8.21,14.24,6.23,31.05-4.07,39.45-.94.77-1.8,1.63-2.57,2.57-8.41,10.3-25.22,12.28-39.45,4.07C8.91,58.91,2.34,41.24,9.75,28.38Z"/>
    <path class="cls-7" d="M120.76,28.38c-1.91-3.3-4.55-5.96-7.7-7.94-2.28-1.44-4.22-3.38-5.66-5.66-1.98-3.14-4.64-5.79-7.94-7.7-12.85-7.41-30.53-.84-39.48,14.68-8.21,14.24-6.23,31.05,4.07,39.45.94.77,1.8,1.63,2.57,2.57,8.41,10.3,25.22,12.28,39.45,4.07,15.52-8.95,22.09-26.63,14.68-39.48Z"/>
    <path class="cls-8" d="M99.45,118.09c3.3-1.91,5.96-4.55,7.94-7.7,1.44-2.28,3.38-4.22,5.66-5.66,3.14-1.98,5.79-4.64,7.7-7.94,7.41-12.85.84-30.53-14.68-39.48-14.24-8.21-31.05-6.23-39.45,4.07-.77.94-1.63,1.8-2.57,2.57-10.3,8.41-12.28,25.22-4.07,39.45,8.95,15.52,26.63,22.09,39.48,14.68Z"/>
    <path class="cls-6" d="M31.05,118.09c-3.3-1.91-5.96-4.55-7.94-7.7-1.44-2.28-3.38-4.22-5.66-5.66-3.14-1.98-5.79-4.64-7.7-7.94-7.41-12.85-.84-30.53,14.68-39.48,14.24-8.21,31.05-6.23,39.45,4.07.77.94,1.63,1.8,2.57,2.57,10.3,8.41,12.28,25.22,4.07,39.45-8.95,15.52-26.63,22.09-39.48,14.68Z"/>
    <path class="cls-6" d="M61.64,61.24c.42.34.82.71,1.2,1.09.39-.38.78-.75,1.2-1.09,10.3-8.41,12.28-25.22,4.07-39.45-1.53-2.65-3.31-5.03-5.28-7.13-1.97,2.1-3.75,4.48-5.28,7.13-8.21,14.24-6.23,31.05,4.07,39.45Z"/>
    <path class="cls-7" d="M61.64,108.91c.42.34.82.71,1.2,1.09.39-.38.78-.75,1.2-1.09,10.3-8.41,12.28-25.22,4.07-39.45-1.53-2.65-3.31-5.03-5.28-7.13-1.97,2.1-3.75,4.48-5.28,7.13-8.21,14.24-6.23,31.05,4.07,39.45Z"/>
    <path class="cls-8" d="M61.76,63.53c.34-.42.71-.82,1.09-1.2-.38-.39-.75-.78-1.09-1.2-8.41-10.3-25.22-12.28-39.45-4.07-2.65,1.53-5.03,3.31-7.13,5.28,2.1,1.97,4.48,3.75,7.13,5.28,14.24,8.21,31.05,6.23,39.45-4.07Z"/>
    <path class="cls-3" d="M109.43,63.53c.34-.42.71-.82,1.09-1.2-.38-.39-.75-.78-1.09-1.2-8.41-10.3-25.22-12.28-39.45-4.07-2.65,1.53-5.03,3.31-7.13,5.28,2.1,1.97,4.48,3.75,7.13,5.28,14.24,8.21,31.05,6.23,39.45-4.07Z"/>
    <path class="cls-4" d="M85.25,75.41c-9.11,0-17.59-3.44-22.98-10.04-.66-.81-1.41-1.56-2.22-2.22-11.34-9.25-13.34-27.59-4.66-42.64,4.62-8.01,11.57-14.06,19.57-17.03,8.17-3.04,16.45-2.53,23.32,1.44,3.58,2.07,6.55,4.94,8.81,8.53,1.23,1.96,2.92,3.65,4.88,4.88,3.59,2.26,6.46,5.23,8.53,8.81h0c8.09,14.02,1.09,33.27-15.6,42.89-6.28,3.62-13.14,5.39-19.66,5.39ZM85.45,6.53c-2.85,0-5.79.54-8.74,1.64-6.91,2.57-12.94,7.84-16.98,14.85-7.47,12.95-5.97,28.55,3.49,36.27,1.07.87,2.05,1.86,2.93,2.93,7.72,9.46,23.31,10.96,36.27,3.49,14.3-8.25,20.48-24.43,13.76-36.06-1.66-2.87-3.96-5.25-6.86-7.08-2.59-1.63-4.82-3.86-6.44-6.45-1.83-2.9-4.21-5.21-7.08-6.86-3.13-1.81-6.66-2.72-10.34-2.72Z"/>
    <path class="cls-4" d="M40.19,123.62c-4.46,0-8.83-1.08-12.79-3.37h0c-3.58-2.07-6.55-4.94-8.81-8.53-1.23-1.96-2.92-3.65-4.88-4.88-3.59-2.26-6.46-5.23-8.53-8.81-8.09-14.02-1.09-33.27,15.6-42.89,15.05-8.68,33.38-6.68,42.64,4.66.66.81,1.41,1.56,2.22,2.22,11.34,9.25,13.34,27.59,4.66,42.64-6.91,11.98-18.77,18.96-30.1,18.96ZM29.89,115.92c11.64,6.71,27.82.54,36.06-13.76,7.47-12.95,5.97-28.55-3.49-36.27-1.07-.87-2.05-1.86-2.93-2.93-7.72-9.46-23.32-10.96-36.27-3.49-14.3,8.25-20.48,24.43-13.76,36.06,1.66,2.87,3.97,5.25,6.86,7.08,2.59,1.63,4.82,3.86,6.45,6.45,1.83,2.9,4.21,5.21,7.08,6.86h0Z"/>
    <path class="cls-4" d="M85.46,123.65c-3.44,0-6.97-.65-10.49-1.96-8-2.98-14.95-9.02-19.57-17.03-8.68-15.05-6.68-33.39,4.66-42.64.81-.66,1.56-1.41,2.22-2.22,9.25-11.34,27.59-13.34,42.64-4.66,16.69,9.63,23.69,28.87,15.6,42.89-2.07,3.58-4.94,6.55-8.53,8.81-1.96,1.23-3.65,2.92-4.88,4.88-2.26,3.59-5.23,6.46-8.81,8.53h0c-3.91,2.26-8.28,3.39-12.83,3.39ZM85.21,54.73c-7.62,0-14.63,2.81-19.06,8.23-.87,1.07-1.86,2.06-2.93,2.93-9.46,7.72-10.96,23.31-3.49,36.27,4.04,7,10.07,12.28,16.98,14.85,6.75,2.51,13.52,2.12,19.08-1.08h0c2.87-1.66,5.25-3.96,7.08-6.86,1.63-2.59,3.86-4.81,6.44-6.44,2.9-1.83,5.21-4.21,6.86-7.08,6.71-11.64.54-27.81-13.77-36.06-5.53-3.19-11.54-4.74-17.21-4.74Z"/>
    <path class="cls-4" d="M40.43,75.41c-6.53,0-13.38-1.76-19.66-5.39C4.08,60.4-2.91,41.16,5.18,27.14h0c2.07-3.58,4.94-6.55,8.53-8.81,1.96-1.23,3.65-2.92,4.88-4.88,2.26-3.59,5.23-6.46,8.81-8.53,14.03-8.09,33.27-1.09,42.89,15.6,8.68,15.05,6.68,33.39-4.66,42.64-.81.66-1.56,1.41-2.22,2.22-5.39,6.61-13.87,10.04-22.98,10.04ZM9.51,29.63h0c-6.71,11.64-.54,27.81,13.76,36.06,12.95,7.47,28.55,5.97,36.27-3.49.87-1.07,1.86-2.05,2.93-2.93,9.46-7.72,10.96-23.31,3.49-36.27C57.71,8.71,41.53,2.54,29.89,9.25c-2.87,1.66-5.25,3.97-7.08,6.86-1.63,2.59-3.86,4.81-6.44,6.45-2.9,1.82-5.21,4.21-6.86,7.08Z"/>
    <g>
      <path class="cls-1" d="M62.84,62.3c-.09.09-.19.18-.28.28.09.09.18.19.28.28.09-.09.19-.18.28-.28-.09-.09-.18-.19-.28-.28Z"/>
      <path class="cls-2" d="M63.12,66.16l-2.02-2.07-1.82-1.79,1.82-1.79c.49-.48.94-.89,1.37-1.24h0c9.46-7.72,10.96-23.31,3.49-36.27-1.39-2.41-3.05-4.65-4.94-6.67l-1.6-1.71,1.6-1.71C71.58,1.64,86.91-1.65,98.29,4.91c3.58,2.07,6.55,4.94,8.81,8.53,1.23,1.96,2.92,3.65,4.88,4.88,3.59,2.26,6.46,5.23,8.53,8.81,6.57,11.38,3.27,26.71-8.01,37.27l-1.71,1.6-1.71-1.6c-2.02-1.89-4.26-3.55-6.67-4.94-12.96-7.47-28.55-5.97-36.27,3.49-.35.43-.76.88-1.24,1.37l-1.79,1.83ZM85.25,49.75c6.53,0,13.38,1.76,19.66,5.39,2.04,1.17,3.97,2.52,5.77,4.02,8.29-8.84,10.58-20.71,5.49-29.52-1.66-2.87-3.96-5.25-6.86-7.08-2.59-1.63-4.82-3.86-6.44-6.45-1.83-2.9-4.21-5.21-7.08-6.86-8.82-5.09-20.69-2.79-29.53,5.49,1.5,1.8,2.84,3.74,4.02,5.77,5.88,10.2,6.86,21.91,3.35,31.28,3.6-1.35,7.54-2.04,11.62-2.04Z"/>
      <path class="cls-2" d="M40.2,123.6c-4.5,0-8.88-1.09-12.8-3.35-3.58-2.07-6.55-4.94-8.81-8.53-1.23-1.96-2.92-3.65-4.88-4.88-3.59-2.26-6.46-5.23-8.53-8.81-6.57-11.39-3.27-26.71,8.01-37.27l1.71-1.6,1.71,1.6c2.02,1.89,4.26,3.55,6.67,4.94,12.95,7.47,28.55,5.97,36.27-3.49.36-.44.76-.88,1.24-1.37l1.79-1.82,3.85,3.86-1.82,1.78c-.49.48-.94.89-1.37,1.24h0c-9.46,7.72-10.96,23.31-3.49,36.27,1.39,2.41,3.05,4.65,4.94,6.67l1.6,1.71-1.6,1.71c-6.93,7.4-15.9,11.36-24.47,11.36ZM15,66.01c-8.29,8.84-10.58,20.71-5.49,29.52,1.66,2.87,3.97,5.25,6.86,7.08,2.59,1.63,4.82,3.86,6.45,6.45,1.83,2.9,4.21,5.21,7.08,6.86,8.82,5.09,20.68,2.79,29.53-5.49-1.5-1.8-2.84-3.74-4.02-5.77-5.88-10.2-6.86-21.91-3.35-31.28-9.37,3.51-21.08,2.53-31.28-3.35-2.04-1.17-3.97-2.52-5.77-4.02Z"/>
      <path class="cls-2" d="M85.49,123.6c-8.57,0-17.54-3.96-24.47-11.36l-1.6-1.71,1.6-1.71c1.89-2.02,3.55-4.26,4.94-6.67,7.47-12.95,5.97-28.55-3.49-36.27-.43-.35-.88-.76-1.37-1.24l-1.82-1.78,3.85-3.86,1.79,1.82c.48.49.88.94,1.24,1.37,7.72,9.46,23.31,10.96,36.27,3.49,2.41-1.39,4.65-3.05,6.67-4.94l1.71-1.6,1.71,1.6c11.28,10.56,14.58,25.89,8.01,37.27-2.07,3.58-4.94,6.55-8.53,8.81-1.96,1.23-3.65,2.92-4.88,4.88-2.26,3.59-5.23,6.46-8.81,8.53-3.92,2.26-8.31,3.35-12.8,3.35ZM66.27,110.43c8.84,8.29,20.71,10.58,29.53,5.49,2.87-1.66,5.25-3.97,7.08-6.86,1.63-2.59,3.86-4.81,6.44-6.45,2.9-1.83,5.21-4.21,6.86-7.08,5.08-8.82,2.79-20.68-5.5-29.52-1.8,1.5-3.74,2.84-5.77,4.02-10.2,5.88-21.91,6.86-31.28,3.35,3.51,9.37,2.53,21.07-3.35,31.27-1.17,2.04-2.52,3.97-4.02,5.77Z"/>
      <path class="cls-2" d="M85.25,75.41c-9.11,0-17.59-3.44-22.98-10.04-.26-.32-.57-.66-.94-1.04l-1.71-1.75,1.71-1.75c.38-.39.68-.72.94-1.04h0c9.25-11.34,27.59-13.34,42.64-4.66,2.74,1.58,5.29,3.47,7.59,5.62l1.95,1.83-1.95,1.83c-2.3,2.15-4.85,4.04-7.59,5.62-6.28,3.62-13.14,5.39-19.66,5.39ZM66.46,62.58c7.82,9.12,23.17,10.48,35.95,3.11,1.6-.92,3.12-1.96,4.56-3.11-1.44-1.15-2.96-2.19-4.56-3.11-12.78-7.37-28.13-6.01-35.95,3.11Z"/>
      <path class="cls-2" d="M62.84,114.19l-1.83-1.95c-2.15-2.3-4.04-4.85-5.62-7.59-8.68-15.05-6.68-33.39,4.66-42.64.32-.26.65-.56,1.04-.94l1.75-1.71,1.75,1.71c.39.38.72.68,1.04.94h0c11.34,9.25,13.34,27.59,4.66,42.64-1.58,2.74-3.47,5.29-5.62,7.59l-1.83,1.95ZM62.84,66.2c-9.12,7.82-10.49,23.17-3.11,35.95.92,1.6,1.96,3.12,3.11,4.56,1.15-1.44,2.19-2.96,3.11-4.56,7.37-12.78,6.01-28.13-3.11-35.95Z"/>
      <path class="cls-2" d="M62.57,66.16l-1.79-1.83c-.48-.49-.88-.94-1.24-1.37h0c-7.72-9.46-23.32-10.96-36.27-3.49-2.41,1.39-4.65,3.05-6.67,4.94l-1.71,1.6-1.71-1.6C1.9,53.85-1.39,38.52,5.17,27.13c2.07-3.58,4.94-6.55,8.53-8.81,1.96-1.23,3.65-2.92,4.88-4.88,2.26-3.59,5.23-6.46,8.81-8.53,11.39-6.57,26.71-3.27,37.27,8.01l1.6,1.71-1.6,1.71c-1.89,2.02-3.55,4.26-4.94,6.67-7.47,12.95-5.97,28.55,3.49,36.27.43.36.88.76,1.37,1.24l1.82,1.79-2.06,2.02-1.79,1.83ZM40.21,6.56c-3.64,0-7.17.88-10.32,2.69-2.87,1.66-5.25,3.97-7.08,6.86-1.63,2.59-3.86,4.81-6.44,6.44-2.9,1.83-5.21,4.21-6.86,7.08-5.09,8.82-2.79,20.68,5.49,29.52,1.8-1.5,3.74-2.84,5.77-4.02,10.2-5.88,21.91-6.86,31.28-3.35-3.51-9.37-2.53-21.07,3.35-31.28,1.17-2.04,2.52-3.97,4.02-5.77-5.69-5.33-12.63-8.18-19.21-8.18Z"/>
      <path class="cls-2" d="M62.84,65.8l-1.75-1.71c-.38-.37-.72-.68-1.04-.94h0c-11.34-9.25-13.34-27.59-4.66-42.64,1.58-2.74,3.47-5.29,5.62-7.59l1.83-1.95,1.83,1.95c2.15,2.3,4.04,4.85,5.62,7.59,8.68,15.05,6.68,33.39-4.66,42.64-.32.26-.66.57-1.04.94l-1.75,1.71ZM62.84,18.45c-1.15,1.44-2.19,2.96-3.11,4.56-7.37,12.78-6.01,28.13,3.11,35.95,9.12-7.82,10.49-23.17,3.11-35.95-.92-1.6-1.96-3.12-3.11-4.56Z"/>
      <path class="cls-2" d="M40.43,75.41c-6.53,0-13.38-1.76-19.66-5.39-2.74-1.58-5.29-3.47-7.59-5.62l-1.95-1.83,1.95-1.83c2.3-2.15,4.85-4.04,7.59-5.62,15.05-8.68,33.38-6.68,42.64,4.66.26.32.56.65.94,1.04l1.71,1.75-1.71,1.75c-.37.38-.68.72-.94,1.04h0c-5.39,6.61-13.87,10.04-22.98,10.04ZM18.71,62.58c1.44,1.15,2.96,2.19,4.56,3.11,12.78,7.37,28.13,6.01,35.95-3.11-7.83-9.12-23.18-10.48-35.95-3.11-1.6.92-3.12,1.96-4.56,3.11Z"/>
    </g>
    <g>
      <circle class="cls-5" cx="31.36" cy="94.18" r="7.34"/>
      <path class="cls-2" d="M31.36,103.02c-2.26,0-4.53-.86-6.25-2.58s-2.59-3.89-2.59-6.25.92-4.58,2.59-6.25c3.44-3.44,9.05-3.45,12.5,0,1.67,1.67,2.59,3.89,2.59,6.25s-.92,4.58-2.59,6.25-3.99,2.58-6.25,2.58ZM31.36,88.35c-1.5,0-2.99.57-4.13,1.71s-1.71,2.57-1.71,4.13.61,3.02,1.71,4.13,2.57,1.71,4.13,1.71,3.02-.61,4.13-1.71,1.71-2.57,1.71-4.13-.61-3.02-1.71-4.13-2.63-1.71-4.13-1.71Z"/>
    </g>
    <g>
      <circle class="cls-5" cx="94.52" cy="30.62" r="7.34"/>
      <path class="cls-2" d="M94.52,39.46c-2.26,0-4.53-.86-6.25-2.58s-2.59-3.89-2.59-6.25.92-4.58,2.59-6.25c3.45-3.45,9.05-3.44,12.5,0,1.67,1.67,2.59,3.89,2.59,6.25s-.92,4.58-2.59,6.25-3.99,2.58-6.25,2.58ZM94.52,24.79c-1.56,0-3.02.61-4.13,1.71s-1.71,2.57-1.71,4.13.61,3.02,1.71,4.13c2.28,2.28,5.98,2.28,8.25,0,1.1-1.1,1.71-2.57,1.71-4.13s-.61-3.02-1.71-4.13-2.57-1.71-4.13-1.71Z"/>
    </g>
    <g>
      <circle class="cls-5" cx="31.06" cy="30.72" r="7.34"/>
      <path class="cls-2" d="M31.06,39.55c-2.26,0-4.53-.86-6.25-2.58s-2.59-3.89-2.59-6.25.92-4.58,2.59-6.25,3.89-2.59,6.25-2.59,4.58.92,6.25,2.59,2.59,3.89,2.59,6.25-.92,4.58-2.59,6.25-3.99,2.58-6.25,2.58ZM31.06,24.88c-1.56,0-3.02.61-4.13,1.71s-1.71,2.57-1.71,4.13.61,3.02,1.71,4.13c2.28,2.28,5.98,2.28,8.25,0,1.1-1.1,1.71-2.57,1.71-4.13s-.61-3.02-1.71-4.13-2.57-1.71-4.13-1.71Z"/>
    </g>
    <g>
      <circle class="cls-5" cx="94.62" cy="93.89" r="7.34"/>
      <path class="cls-2" d="M94.62,102.72c-2.36,0-4.58-.92-6.25-2.59s-2.59-3.89-2.59-6.25.92-4.58,2.59-6.25h0s0,0,0,0c1.67-1.67,3.89-2.59,6.25-2.59s4.58.92,6.25,2.59c1.67,1.67,2.59,3.89,2.59,6.25s-.92,4.58-2.59,6.25-3.89,2.59-6.25,2.59ZM94.62,88.05c-1.56,0-3.02.61-4.13,1.71h0c-1.1,1.1-1.71,2.57-1.71,4.13s.61,3.02,1.71,4.13,2.57,1.71,4.13,1.71,3.02-.61,4.13-1.71,1.71-2.57,1.71-4.13-.61-3.02-1.71-4.13-2.57-1.71-4.13-1.71Z"/>
    </g>
    <rect class="cls-2" x="25.43" y="60.78" width="74.87" height="3" transform="translate(-25.63 62.69) rotate(-45)"/>
    <rect class="cls-2" x="61.34" y="24.82" width="3" height="74.87" transform="translate(-25.62 62.67) rotate(-45)"/>
  </g>
  <g>
    <path class="cls-2" d="M154.22,110V16.49h17.37v77.48h43.15v16.03h-60.51Z"/>
    <path class="cls-2" d="M229.03,110V16.49h61.18v15.76h-44.08v61.98h44.62v15.76h-61.71ZM237.04,69.92v-15.5h46.35v15.5h-46.35Z"/>
    <path class="cls-2" d="M304.1,110v-15.36h15.36V31.85h-15.36v-15.36h48.09v15.36h-15.36v62.78h15.36v15.36h-48.09Z"/>
  </g>
</svg>