<?xml version="1.0" encoding="UTF-8"?>
<svg id="Layer_1" data-name="Layer 1" xmlns="http://www.w3.org/2000/svg" viewBox="0 0 387.29 126.92">
  <defs>
    <style>
      .cls-1 {
        fill: none;
      }

      .cls-2 {
        fill: #231f20;
      }

      .cls-3 {
        fill: #ecabbd;
      }

      .cls-4 {
        fill: #fff;
      }

      .cls-5 {
        fill: #f8ec8d;
      }

      .cls-6 {
        fill: #94323c;
      }

      .cls-7 {
        fill: #ec869a;
      }

      .cls-8 {
        fill: #d75364;
      }
    </style>
  </defs>
  <g>
    <path class="cls-3" d="M8.55,28.48c1.91-3.3,4.55-5.96,7.7-7.94,2.28-1.44,4.22-3.38,5.66-5.66,1.98-3.14,4.64-5.79,7.94-7.7,12.85-7.41,30.53-.84,39.48,14.68,8.21,14.24,6.23,31.05-4.07,39.45-.94.77-1.8,1.63-2.57,2.57-8.41,10.3-25.22,12.28-39.45,4.07C7.71,59.01,1.14,41.34,8.55,28.48Z"/>
    <path class="cls-7" d="M119.56,28.48c-1.91-3.3-4.55-5.96-7.7-7.94-2.28-1.44-4.22-3.38-5.66-5.66-1.98-3.14-4.64-5.79-7.94-7.7-12.85-7.41-30.53-.84-39.48,14.68-8.21,14.24-6.23,31.05,4.07,39.45.94.77,1.8,1.63,2.57,2.57,8.41,10.3,25.22,12.28,39.45,4.07,15.52-8.95,22.09-26.63,14.68-39.48Z"/>
    <path class="cls-8" d="M98.25,118.19c3.3-1.91,5.96-4.55,7.94-7.7,1.44-2.28,3.38-4.22,5.66-5.66,3.14-1.98,5.79-4.64,7.7-7.94,7.41-12.85.84-30.53-14.68-39.48-14.24-8.21-31.05-6.23-39.45,4.07-.77.94-1.63,1.8-2.57,2.57-10.3,8.41-12.28,25.22-4.07,39.45,8.95,15.52,26.63,22.09,39.48,14.68Z"/>
    <path class="cls-6" d="M29.85,118.19c-3.3-1.91-5.96-4.55-7.94-7.7-1.44-2.28-3.38-4.22-5.66-5.66-3.14-1.98-5.79-4.64-7.7-7.94-7.41-12.85-.84-30.53,14.68-39.48,14.24-8.21,31.05-6.23,39.45,4.07.77.94,1.63,1.8,2.57,2.57,10.3,8.41,12.28,25.22,4.07,39.45-8.95,15.52-26.63,22.09-39.48,14.68Z"/>
    <path class="cls-6" d="M60.44,61.34c.42.34.82.71,1.2,1.09.39-.38.78-.75,1.2-1.09,10.3-8.41,12.28-25.22,4.07-39.45-1.53-2.65-3.31-5.03-5.28-7.13-1.97,2.1-3.75,4.48-5.28,7.13-8.21,14.24-6.23,31.05,4.07,39.45Z"/>
    <path class="cls-7" d="M60.44,109.01c.42.34.82.71,1.2,1.09.39-.38.78-.75,1.2-1.09,10.3-8.41,12.28-25.22,4.07-39.45-1.53-2.65-3.31-5.03-5.28-7.13-1.97,2.1-3.75,4.48-5.28,7.13-8.21,14.24-6.23,31.05,4.07,39.45Z"/>
    <path class="cls-8" d="M60.55,63.63c.34-.42.71-.82,1.09-1.2-.38-.39-.75-.78-1.09-1.2-8.41-10.3-25.22-12.28-39.45-4.07-2.65,1.53-5.03,3.31-7.13,5.28,2.1,1.97,4.48,3.75,7.13,5.28,14.24,8.21,31.05,6.23,39.45-4.07Z"/>
    <path class="cls-3" d="M108.22,63.63c.34-.42.71-.82,1.09-1.2-.38-.39-.75-.78-1.09-1.2-8.41-10.3-25.22-12.28-39.45-4.07-2.65,1.53-5.03,3.31-7.13,5.28,2.1,1.97,4.48,3.75,7.13,5.28,14.24,8.21,31.05,6.23,39.45-4.07Z"/>
    <path class="cls-4" d="M84.05,75.51c-9.11,0-17.59-3.44-22.98-10.04-.66-.81-1.41-1.56-2.22-2.22-11.34-9.25-13.34-27.58-4.66-42.64C63.83,3.92,83.07-3.07,97.09,5.02c3.58,2.07,6.55,4.94,8.81,8.53,1.23,1.96,2.92,3.65,4.88,4.88,3.59,2.26,6.46,5.23,8.53,8.81,3.96,6.87,4.47,15.15,1.44,23.32-2.97,8-9.02,14.95-17.03,19.57-6.28,3.62-13.14,5.39-19.66,5.39ZM84.25,6.63c-9.57,0-19.73,6.1-25.72,16.48-7.47,12.96-5.97,28.55,3.49,36.27,1.07.87,2.05,1.86,2.93,2.93,7.72,9.46,23.32,10.96,36.27,3.49,7-4.04,12.28-10.07,14.85-16.98,2.51-6.75,2.12-13.52-1.08-19.08h0c-1.66-2.87-3.96-5.25-6.86-7.08-2.59-1.63-4.81-3.86-6.45-6.45-1.83-2.9-4.21-5.21-7.08-6.86-3.19-1.84-6.73-2.71-10.34-2.71Z"/>
    <path class="cls-4" d="M38.99,123.72c-4.46,0-8.83-1.08-12.79-3.37-3.58-2.07-6.55-4.94-8.81-8.53-1.23-1.96-2.92-3.65-4.88-4.88-3.59-2.26-6.46-5.23-8.53-8.81C.01,91.26-.5,82.98,2.54,74.81c2.97-8,9.02-14.95,17.03-19.57,15.05-8.68,33.38-6.68,42.64,4.66.66.81,1.41,1.56,2.22,2.22,11.34,9.25,13.34,27.59,4.66,42.64-6.91,11.98-18.77,18.96-30.1,18.96ZM39.28,54.83c-5.67,0-11.68,1.55-17.21,4.74-7,4.04-12.28,10.07-14.85,16.98-2.51,6.75-2.12,13.52,1.08,19.08,1.66,2.87,3.96,5.25,6.86,7.08,2.59,1.63,4.81,3.86,6.45,6.45,1.83,2.9,4.21,5.21,7.08,6.86h0c11.63,6.71,27.81.54,36.06-13.76,7.47-12.95,5.97-28.55-3.49-36.27-1.07-.87-2.05-1.86-2.93-2.93-4.43-5.42-11.44-8.23-19.06-8.23Z"/>
    <path class="cls-4" d="M84.3,123.72c-11.33,0-23.19-6.99-30.1-18.96-8.68-15.05-6.68-33.39,4.66-42.64.81-.66,1.56-1.41,2.22-2.22,9.25-11.34,27.58-13.34,42.64-4.66,8.01,4.62,14.06,11.57,17.03,19.57,3.04,8.17,2.53,16.45-1.44,23.32-2.07,3.58-4.94,6.55-8.53,8.81-1.96,1.23-3.65,2.92-4.88,4.88-2.26,3.59-5.23,6.46-8.81,8.53h0c-3.96,2.28-8.33,3.37-12.79,3.37ZM84.01,54.83c-7.62,0-14.63,2.81-19.06,8.23-.87,1.07-1.86,2.06-2.93,2.93-9.46,7.72-10.96,23.31-3.49,36.27,8.25,14.3,24.43,20.47,36.06,13.76h0c2.87-1.66,5.25-3.96,7.08-6.86,1.63-2.59,3.86-4.82,6.45-6.45,2.9-1.83,5.21-4.21,6.86-7.08,3.21-5.56,3.59-12.33,1.08-19.08-2.57-6.91-7.84-12.94-14.85-16.98-5.53-3.19-11.54-4.74-17.21-4.74Z"/>
    <path class="cls-4" d="M39.23,75.51c-6.53,0-13.38-1.76-19.66-5.39-8.01-4.62-14.06-11.57-17.03-19.57C-.5,42.39.01,34.11,3.97,27.24h0c2.07-3.58,4.94-6.55,8.53-8.81,1.96-1.23,3.65-2.92,4.88-4.88,2.26-3.59,5.23-6.46,8.81-8.53,14.02-8.09,33.26-1.09,42.89,15.6,8.68,15.05,6.68,33.39-4.66,42.64-.81.66-1.56,1.41-2.22,2.22-5.39,6.61-13.87,10.04-22.98,10.04ZM39.04,6.63c-3.62,0-7.15.87-10.34,2.71-2.87,1.66-5.25,3.96-7.08,6.86-1.63,2.59-3.86,4.82-6.45,6.45-2.9,1.83-5.21,4.21-6.86,7.08h0c-3.21,5.56-3.59,12.33-1.08,19.08,2.57,6.91,7.84,12.94,14.85,16.98,12.96,7.47,28.55,5.97,36.27-3.49.87-1.07,1.86-2.06,2.93-2.93,9.46-7.72,10.96-23.31,3.49-36.27-5.99-10.38-16.15-16.48-25.72-16.48Z"/>
    <g>
      <path class="cls-1" d="M61.64,62.4c-.09.09-.19.18-.28.28.09.09.18.19.28.28.09-.09.19-.18.28-.28-.09-.09-.18-.19-.28-.28Z"/>
      <path class="cls-2" d="M61.92,66.26l-2.03-2.07-1.82-1.79,1.82-1.79c.5-.49.94-.88,1.37-1.24h0c9.46-7.72,10.96-23.31,3.49-36.27-1.39-2.41-3.05-4.65-4.94-6.67l-1.6-1.71,1.6-1.71C70.38,1.74,85.7-1.55,97.09,5.01c3.58,2.07,6.55,4.94,8.81,8.53,1.23,1.96,2.92,3.65,4.88,4.88,3.59,2.26,6.46,5.23,8.53,8.81,6.57,11.38,3.27,26.71-8.01,37.27l-1.71,1.6-1.71-1.6c-2.02-1.89-4.26-3.55-6.67-4.94-12.96-7.47-28.54-5.97-36.27,3.49-.35.43-.75.87-1.24,1.37l-1.79,1.83ZM84.05,49.85c6.53,0,13.38,1.76,19.66,5.39,2.04,1.17,3.97,2.52,5.77,4.02,8.29-8.84,10.58-20.71,5.49-29.52-1.66-2.87-3.96-5.25-6.86-7.08-2.59-1.63-4.81-3.86-6.45-6.44-1.83-2.9-4.21-5.21-7.08-6.86-8.82-5.09-20.68-2.79-29.52,5.49,1.5,1.8,2.84,3.73,4.02,5.77,5.88,10.2,6.86,21.91,3.35,31.28,3.6-1.35,7.54-2.04,11.61-2.04Z"/>
      <path class="cls-2" d="M39,123.7c-4.5,0-8.88-1.09-12.8-3.35-3.58-2.07-6.55-4.94-8.81-8.53-1.23-1.96-2.92-3.65-4.88-4.88-3.59-2.26-6.46-5.23-8.53-8.81-6.57-11.39-3.27-26.71,8.01-37.27l1.71-1.6,1.71,1.6c2.02,1.89,4.26,3.55,6.67,4.94,12.95,7.47,28.55,5.97,36.27-3.49.35-.43.76-.88,1.24-1.37l1.79-1.82,2.02,2.06,1.84,1.79-1.83,1.79c-.5.49-.94.88-1.37,1.24h0c-9.46,7.72-10.96,23.31-3.49,36.27,1.39,2.41,3.05,4.65,4.94,6.67l1.6,1.71-1.6,1.71c-6.93,7.4-15.9,11.36-24.47,11.36ZM13.8,66.11c-8.29,8.84-10.58,20.71-5.49,29.53,1.66,2.87,3.96,5.25,6.86,7.08,2.59,1.63,4.82,3.86,6.45,6.45,1.83,2.9,4.21,5.21,7.08,6.86,8.82,5.09,20.68,2.79,29.53-5.49-1.5-1.8-2.84-3.74-4.02-5.77-5.88-10.2-6.86-21.91-3.35-31.28-9.37,3.51-21.07,2.53-31.28-3.35-2.04-1.17-3.97-2.52-5.77-4.02Z"/>
      <path class="cls-2" d="M84.29,123.7c-8.57,0-17.54-3.96-24.47-11.36l-1.6-1.71,1.6-1.71c1.89-2.01,3.55-4.26,4.94-6.67,7.47-12.95,5.97-28.55-3.49-36.27-.44-.36-.87-.75-1.37-1.24l-1.82-1.78,3.85-3.86,1.79,1.83c.49.5.88.94,1.24,1.37,7.72,9.46,23.32,10.96,36.27,3.49,2.41-1.39,4.65-3.05,6.67-4.94l1.71-1.6,1.71,1.6c11.28,10.56,14.58,25.89,8.01,37.27-2.07,3.58-4.94,6.55-8.53,8.81-1.96,1.23-3.65,2.92-4.88,4.88-2.26,3.59-5.23,6.46-8.81,8.53-3.92,2.26-8.31,3.35-12.8,3.35ZM65.07,110.52c8.84,8.29,20.71,10.58,29.52,5.49,2.87-1.66,5.25-3.96,7.08-6.86,1.63-2.59,3.86-4.82,6.45-6.45,2.9-1.83,5.21-4.21,6.86-7.08,5.09-8.82,2.79-20.69-5.49-29.52-1.8,1.5-3.73,2.84-5.77,4.02-10.2,5.88-21.91,6.86-31.28,3.35,3.51,9.37,2.53,21.07-3.35,31.27-1.18,2.04-2.52,3.97-4.02,5.77Z"/>
      <path class="cls-2" d="M84.05,75.51c-9.11,0-17.59-3.44-22.98-10.04-.26-.32-.56-.65-.94-1.04l-1.71-1.75,1.71-1.75c.39-.4.68-.73.94-1.04h0c9.25-11.34,27.59-13.34,42.64-4.66,2.74,1.58,5.29,3.47,7.59,5.62l1.95,1.82-1.95,1.82c-2.29,2.15-4.85,4.04-7.59,5.62-6.28,3.62-13.13,5.39-19.66,5.39ZM65.26,62.68c7.82,9.12,23.17,10.48,35.95,3.11,1.6-.92,3.12-1.96,4.56-3.11-1.43-1.15-2.96-2.19-4.56-3.11-12.78-7.37-28.13-6.01-35.95,3.11Z"/>
      <path class="cls-2" d="M61.64,114.29l-1.83-1.95c-2.15-2.3-4.04-4.85-5.62-7.59-8.68-15.05-6.68-33.39,4.66-42.64.31-.26.64-.56,1.04-.94l1.75-1.71,1.75,1.71c.39.38.72.68,1.04.94h0c11.34,9.25,13.34,27.59,4.66,42.64-1.58,2.74-3.47,5.29-5.62,7.59l-1.83,1.95ZM61.64,66.3c-9.12,7.82-10.48,23.17-3.11,35.95.92,1.6,1.96,3.12,3.11,4.56,1.15-1.43,2.19-2.96,3.11-4.56,7.37-12.78,6.01-28.13-3.11-35.95Z"/>
      <path class="cls-2" d="M61.37,66.26l-1.79-1.83c-.49-.5-.88-.94-1.24-1.37h0c-7.72-9.46-23.31-10.96-36.27-3.49-2.41,1.39-4.65,3.05-6.67,4.94l-1.71,1.6-1.71-1.6C.7,53.95-2.59,38.62,3.97,27.23c2.07-3.58,4.94-6.55,8.53-8.81,1.96-1.23,3.64-2.92,4.88-4.88,2.26-3.59,5.23-6.46,8.81-8.53,11.38-6.57,26.71-3.27,37.27,8.01l1.6,1.71-1.6,1.71c-1.89,2.02-3.55,4.26-4.94,6.67-7.47,12.96-5.97,28.55,3.49,36.27.43.35.87.75,1.37,1.24l1.84,1.8-2.07,2.02-1.79,1.83ZM39.01,6.66c-3.64,0-7.17.88-10.32,2.69-2.87,1.66-5.25,3.97-7.08,6.86-1.63,2.59-3.86,4.82-6.44,6.44-2.9,1.83-5.21,4.21-6.86,7.08-5.09,8.82-2.79,20.69,5.49,29.53,1.8-1.5,3.74-2.84,5.77-4.02,10.2-5.88,21.91-6.86,31.28-3.35-3.51-9.37-2.53-21.07,3.35-31.27,1.17-2.04,2.52-3.97,4.02-5.77-5.69-5.33-12.63-8.18-19.21-8.18Z"/>
      <path class="cls-2" d="M61.64,65.9l-1.75-1.71c-.39-.38-.72-.68-1.04-.94h0c-11.34-9.25-13.34-27.58-4.66-42.64,1.58-2.74,3.47-5.29,5.62-7.59l1.83-1.95,1.83,1.95c2.15,2.29,4.04,4.85,5.62,7.59,8.68,15.06,6.68,33.39-4.66,42.64-.32.26-.65.56-1.04.94l-1.75,1.71ZM61.64,18.55c-1.15,1.44-2.19,2.96-3.11,4.56-7.37,12.78-6.01,28.13,3.11,35.95,9.12-7.82,10.49-23.17,3.11-35.95-.92-1.6-1.96-3.12-3.11-4.56Z"/>
      <path class="cls-2" d="M39.23,75.51c-6.53,0-13.38-1.76-19.66-5.39-2.74-1.58-5.29-3.47-7.59-5.62l-1.95-1.83,1.95-1.83c2.3-2.15,4.85-4.04,7.59-5.62,15.05-8.68,33.38-6.68,42.64,4.66.26.32.56.65.94,1.04l1.71,1.75-1.71,1.75c-.38.39-.68.72-.94,1.04h0c-5.39,6.61-13.87,10.04-22.98,10.04ZM17.51,62.68c1.44,1.15,2.96,2.19,4.56,3.11,12.78,7.37,28.13,6.01,35.95-3.11-7.83-9.12-23.17-10.49-35.95-3.11-1.6.92-3.12,1.96-4.56,3.11Z"/>
    </g>
    <g>
      <circle class="cls-5" cx="30.16" cy="94.28" r="7.34"/>
      <path class="cls-2" d="M30.16,103.12c-2.26,0-4.53-.86-6.25-2.58h0c-3.44-3.45-3.44-9.05,0-12.5,3.44-3.44,9.05-3.45,12.5,0,1.67,1.67,2.59,3.89,2.59,6.25s-.92,4.58-2.59,6.25-3.99,2.58-6.25,2.58ZM26.03,98.41c2.28,2.28,5.98,2.27,8.25,0,1.1-1.1,1.71-2.57,1.71-4.13s-.61-3.02-1.71-4.13-2.57-1.71-4.13-1.71-3.02.61-4.13,1.71c-2.27,2.28-2.27,5.98,0,8.25h0Z"/>
    </g>
    <g>
      <circle class="cls-5" cx="93.32" cy="30.72" r="7.34"/>
      <path class="cls-2" d="M93.32,39.56c-2.26,0-4.53-.86-6.25-2.58s-2.59-3.89-2.59-6.25.92-4.58,2.59-6.25c3.45-3.44,9.05-3.45,12.5,0,1.67,1.67,2.59,3.89,2.59,6.25s-.92,4.58-2.59,6.25-3.99,2.58-6.25,2.58ZM93.32,24.89c-1.5,0-2.99.57-4.13,1.71s-1.71,2.57-1.71,4.13.61,3.02,1.71,4.13,2.57,1.71,4.13,1.71,3.02-.61,4.13-1.71,1.71-2.57,1.71-4.13-.61-3.02-1.71-4.13c-1.14-1.14-2.63-1.71-4.13-1.71Z"/>
    </g>
    <g>
      <circle class="cls-5" cx="29.86" cy="30.82" r="7.34"/>
      <path class="cls-2" d="M29.86,39.65c-2.26,0-4.53-.86-6.25-2.58s-2.59-3.89-2.59-6.25.92-4.58,2.59-6.25c3.45-3.45,9.05-3.44,12.5,0,1.67,1.67,2.59,3.89,2.59,6.25s-.92,4.58-2.59,6.25-3.99,2.58-6.25,2.58ZM29.86,24.98c-1.56,0-3.02.61-4.13,1.71s-1.71,2.57-1.71,4.13.61,3.02,1.71,4.13c2.28,2.28,5.98,2.27,8.25,0,1.1-1.1,1.71-2.57,1.71-4.13s-.61-3.02-1.71-4.13-2.57-1.71-4.13-1.71Z"/>
    </g>
    <g>
      <circle class="cls-5" cx="93.42" cy="93.99" r="7.34"/>
      <path class="cls-2" d="M93.42,102.82c-2.26,0-4.53-.86-6.25-2.58-1.67-1.67-2.59-3.89-2.59-6.25s.92-4.58,2.59-6.25c3.45-3.45,9.05-3.44,12.5,0,1.67,1.67,2.59,3.89,2.59,6.25s-.92,4.58-2.59,6.25c-1.72,1.72-3.99,2.58-6.25,2.58ZM93.42,88.15c-1.56,0-3.02.61-4.13,1.71s-1.71,2.57-1.71,4.13.61,3.02,1.71,4.13c2.27,2.27,5.98,2.28,8.25,0,1.1-1.1,1.71-2.57,1.71-4.13s-.61-3.02-1.71-4.13-2.57-1.71-4.13-1.71Z"/>
    </g>
    <rect class="cls-2" x="24.23" y="60.88" width="74.87" height="3" transform="translate(-26.05 61.87) rotate(-45)"/>
    <rect class="cls-2" x="60.14" y="24.92" width="3" height="74.87" transform="translate(-26.04 61.85) rotate(-45)"/>
  </g>
  <g>
    <path class="cls-2" d="M142.5,33.93V6.72h6.61v21.38h12.13v5.83h-18.73Z"/>
    <path class="cls-2" d="M166.56,33.93V6.72h4.2v23.16h12.75v4.04h-16.95Z"/>
    <path class="cls-2" d="M189.84,33.93V6.72h4.12l9.91,16.13-1.98-.04,10.03-16.09h3.89v27.21h-4.2v-11.15c0-2.33.06-4.43.17-6.3.12-1.87.32-3.72.6-5.56l.54,1.44-8.9,13.76h-2.57l-8.63-13.6.43-1.59c.28,1.74.49,3.52.6,5.34.12,1.83.18,4,.18,6.51v11.15h-4.2Z"/>
    <path class="cls-2" d="M221.67,24.79v-3.96h11.19v3.96h-11.19Z"/>
    <path class="cls-2" d="M248.45,34.31c-.88,0-1.76-.14-2.62-.43-.87-.28-1.66-.67-2.37-1.15-.71-.48-1.31-1.01-1.79-1.59s-.8-1.17-.95-1.77l1.01-.54v4.97h-4V5.16h4v13.02l-.62-.35c.13-.6.41-1.17.86-1.73.44-.56,1-1.06,1.69-1.52.69-.45,1.43-.82,2.23-1.09.8-.27,1.62-.41,2.45-.41,1.84,0,3.47.45,4.9,1.36,1.42.91,2.55,2.16,3.38,3.75.83,1.59,1.24,3.41,1.24,5.46s-.41,3.87-1.22,5.48c-.82,1.61-1.94,2.87-3.36,3.79-1.42.92-3.03,1.38-4.82,1.38ZM247.79,30.66c1.19,0,2.25-.3,3.19-.91.93-.61,1.67-1.44,2.21-2.49.54-1.05.82-2.25.82-3.6s-.27-2.51-.8-3.56-1.26-1.87-2.2-2.47-2.01-.89-3.23-.89-2.29.3-3.23.89-1.67,1.42-2.21,2.47c-.54,1.05-.82,2.23-.82,3.56s.27,2.55.82,3.6c.54,1.05,1.28,1.88,2.21,2.49.93.61,2.01.91,3.23.91Z"/>
    <path class="cls-2" d="M270.06,34.31c-1.68,0-3.22-.47-4.61-1.4-1.39-.93-2.49-2.2-3.32-3.81-.83-1.61-1.24-3.42-1.24-5.44s.42-3.87,1.26-5.46c.84-1.59,1.98-2.84,3.42-3.75,1.44-.91,3.05-1.36,4.84-1.36,1.06,0,2.03.16,2.92.47s1.65.75,2.31,1.3c.66.56,1.21,1.2,1.63,1.92.43.73.69,1.5.8,2.33l-.89-.31v-5.29h4.04v20.4h-4.04v-4.86l.93-.27c-.16.7-.47,1.38-.95,2.04s-1.09,1.25-1.83,1.77c-.74.52-1.55.93-2.45,1.24-.89.31-1.83.47-2.82.47ZM271.11,30.62c1.22,0,2.29-.3,3.23-.89.93-.6,1.66-1.42,2.2-2.47s.8-2.25.8-3.6-.27-2.5-.8-3.54c-.53-1.04-1.26-1.85-2.2-2.45-.93-.6-2.01-.89-3.23-.89s-2.25.3-3.17.89c-.92.6-1.65,1.41-2.18,2.45-.53,1.04-.8,2.22-.8,3.54s.27,2.55.8,3.6,1.26,1.87,2.18,2.47c.92.6,1.98.89,3.17.89Z"/>
    <path class="cls-2" d="M293.61,34.31c-1.71,0-3.25-.3-4.62-.89s-2.51-1.48-3.42-2.64l2.72-2.33c.78.91,1.63,1.56,2.55,1.96.92.4,1.96.6,3.13.6.47,0,.9-.06,1.3-.17.4-.12.75-.29,1.05-.52.3-.23.53-.51.68-.84.16-.32.23-.68.23-1.07,0-.67-.25-1.22-.74-1.63-.26-.18-.67-.38-1.22-.6-.56-.22-1.28-.45-2.16-.68-1.5-.39-2.73-.83-3.69-1.32-.96-.49-1.7-1.05-2.21-1.67-.39-.49-.67-1.03-.86-1.61-.18-.58-.27-1.22-.27-1.92,0-.85.19-1.64.56-2.35.38-.71.89-1.33,1.55-1.87.66-.53,1.44-.94,2.33-1.22.89-.28,1.85-.43,2.86-.43.96,0,1.91.13,2.86.39.95.26,1.82.64,2.62,1.13.8.49,1.48,1.08,2.02,1.75l-2.29,2.53c-.49-.49-1.03-.93-1.61-1.3-.58-.38-1.17-.67-1.77-.87-.6-.21-1.14-.31-1.63-.31-.54,0-1.04.05-1.48.16-.44.1-.81.26-1.11.47-.3.21-.52.47-.68.78-.16.31-.23.66-.23,1.05.03.34.11.65.25.95.14.3.34.55.6.76.29.21.71.43,1.28.66.57.23,1.29.45,2.18.66,1.3.34,2.36.71,3.21,1.11.84.4,1.51.86,2,1.38.52.49.88,1.06,1.09,1.71.21.65.31,1.37.31,2.18,0,1.17-.33,2.21-.99,3.13-.66.92-1.55,1.64-2.66,2.16-1.11.52-2.36.78-3.73.78Z"/>
    <path class="cls-2" d="M314.95,34.31c-2.1,0-3.96-.45-5.58-1.34s-2.89-2.12-3.81-3.67c-.92-1.55-1.38-3.34-1.38-5.36,0-1.61.26-3.07.78-4.39.52-1.32,1.24-2.47,2.16-3.44.92-.97,2.02-1.72,3.3-2.25,1.28-.53,2.67-.8,4.18-.8,1.32,0,2.55.25,3.69.76,1.14.51,2.13,1.2,2.97,2.08.84.88,1.49,1.92,1.94,3.13.45,1.21.67,2.52.64,3.94l-.04,1.71h-16.67l-.89-3.19h14.11l-.58.66v-.93c-.08-.86-.36-1.62-.85-2.29-.49-.67-1.11-1.2-1.87-1.59-.75-.39-1.57-.58-2.45-.58-1.4,0-2.58.27-3.54.8-.96.53-1.68,1.31-2.18,2.33-.49,1.02-.74,2.29-.74,3.79,0,1.43.3,2.66.89,3.71.6,1.05,1.44,1.86,2.53,2.43,1.09.57,2.34.85,3.77.85,1.01,0,1.95-.17,2.82-.51.87-.34,1.81-.95,2.82-1.83l2.02,2.84c-.62.62-1.38,1.17-2.27,1.63-.89.47-1.84.84-2.84,1.11-1,.27-1.98.41-2.93.41Z"/>
    <path class="cls-2" d="M336.72,34.31c-1.87,0-3.53-.46-4.99-1.38-1.46-.92-2.62-2.18-3.48-3.77-.85-1.59-1.28-3.41-1.28-5.46s.42-3.87,1.26-5.46c.84-1.59,1.99-2.85,3.44-3.77,1.45-.92,3.1-1.38,4.94-1.38,1.01,0,1.99.16,2.93.49.95.32,1.79.76,2.55,1.32.75.56,1.34,1.17,1.77,1.83.43.66.64,1.33.64,2l-1.17.08V5.16h4v28.76h-4v-4.86h.78c0,.62-.21,1.24-.62,1.85-.41.61-.96,1.17-1.65,1.69-.69.52-1.48.93-2.37,1.24-.89.31-1.81.47-2.74.47ZM337.26,30.85c1.22,0,2.29-.31,3.23-.93.93-.62,1.66-1.47,2.2-2.55.53-1.08.8-2.3.8-3.67s-.27-2.6-.8-3.67c-.53-1.08-1.26-1.92-2.2-2.55-.93-.62-2.01-.93-3.23-.93s-2.29.31-3.23.93c-.93.62-1.67,1.47-2.2,2.55-.53,1.08-.8,2.3-.8,3.67s.27,2.6.8,3.67c.53,1.08,1.26,1.92,2.2,2.55.93.62,2.01.93,3.23.93Z"/>
    <path class="cls-2" d="M142.5,74.93v-27.21h18.97v5.64h-12.55v15.94h12.94v5.64h-19.36ZM145.61,63.77v-5.36h14.11v5.36h-14.11Z"/>
    <path class="cls-2" d="M180.51,74.93l-6.61-8.59-.58-.74-8.59-11.08h5.05l6.49,8.47.66.85,8.47,11.08h-4.9ZM164.77,74.93l8.04-10.49,2.37,2.84-5.67,7.66h-4.74ZM177.17,65.05l-2.22-2.8,5.01-7.73h4.74l-7.54,10.53Z"/>
    <path class="cls-2" d="M187.08,58.41v-3.89h12.98v3.89h-12.98ZM191.32,74.93v-25.61h4v25.61h-4Z"/>
    <path class="cls-2" d="M203.72,74.93v-20.4h4.04v6.41l-.39-1.55c.28-.98.77-1.88,1.46-2.68s1.48-1.44,2.37-1.9c.89-.47,1.82-.7,2.78-.7.44,0,.86.04,1.26.12.4.08.72.17.95.27l-1.05,4.35c-.31-.13-.65-.24-1.03-.33-.38-.09-.75-.14-1.11-.14-.7,0-1.37.14-2,.41-.64.27-1.19.65-1.67,1.13-.48.48-.86,1.04-1.15,1.67-.29.64-.43,1.33-.43,2.08v11.27h-4.04Z"/>
    <path class="cls-2" d="M226.38,75.31c-1.68,0-3.22-.47-4.61-1.4-1.39-.93-2.49-2.2-3.32-3.81-.83-1.61-1.24-3.42-1.24-5.44s.42-3.87,1.26-5.46c.84-1.59,1.98-2.84,3.42-3.75,1.44-.91,3.05-1.36,4.84-1.36,1.06,0,2.03.16,2.92.47s1.65.75,2.31,1.3c.66.56,1.21,1.2,1.63,1.92.43.73.69,1.5.8,2.33l-.89-.31v-5.29h4.04v20.4h-4.04v-4.86l.93-.27c-.16.7-.47,1.38-.95,2.04s-1.09,1.25-1.83,1.77c-.74.52-1.55.93-2.45,1.24-.89.31-1.83.47-2.82.47ZM227.43,71.62c1.22,0,2.29-.3,3.23-.89.93-.6,1.66-1.42,2.2-2.47s.8-2.25.8-3.6-.27-2.5-.8-3.54c-.53-1.04-1.26-1.85-2.2-2.45-.93-.6-2.01-.89-3.23-.89s-2.25.3-3.17.89c-.92.6-1.65,1.41-2.18,2.45-.53,1.04-.8,2.22-.8,3.54s.27,2.55.8,3.6,1.26,1.87,2.18,2.47c.92.6,1.98.89,3.17.89Z"/>
    <path class="cls-2" d="M251.79,75.31c-1.89,0-3.58-.47-5.07-1.4-1.49-.93-2.67-2.2-3.54-3.81-.87-1.61-1.3-3.41-1.3-5.4s.43-3.8,1.3-5.4c.87-1.61,2.05-2.88,3.54-3.81,1.49-.93,3.18-1.4,5.07-1.4s3.46.37,4.96,1.11c1.49.74,2.62,1.74,3.4,3.01l-2.21,2.72c-.42-.6-.95-1.14-1.59-1.63s-1.33-.88-2.06-1.17c-.73-.29-1.43-.43-2.1-.43-1.24,0-2.35.31-3.32.91-.97.61-1.74,1.44-2.31,2.51-.57,1.06-.86,2.25-.86,3.58s.3,2.51.89,3.56c.6,1.05,1.39,1.88,2.37,2.51s2.07.93,3.26.93c.7,0,1.38-.12,2.04-.35.66-.23,1.3-.58,1.92-1.05s1.21-1.04,1.75-1.71l2.21,2.72c-.83,1.17-2.01,2.12-3.56,2.88-1.54.75-3.14,1.13-4.8,1.13Z"/>
    <path class="cls-2" d="M262.21,58.41v-3.89h12.98v3.89h-12.98ZM266.45,74.93v-25.61h4v25.61h-4Z"/>
    <path class="cls-2" d="M281.45,50.01c-.86,0-1.52-.22-1.98-.66-.47-.44-.7-1.06-.7-1.87,0-.75.24-1.36.72-1.83s1.13-.7,1.96-.7,1.52.22,1.98.66c.47.44.7,1.06.7,1.87,0,.75-.24,1.36-.72,1.83s-1.13.7-1.96.7ZM279.5,74.93v-20.4h4v20.4h-4Z"/>
    <path class="cls-2" d="M298.82,75.31c-2,0-3.78-.46-5.34-1.38-1.57-.92-2.81-2.18-3.71-3.77-.91-1.59-1.36-3.41-1.36-5.46s.45-3.87,1.36-5.46c.91-1.59,2.14-2.85,3.71-3.77,1.57-.92,3.35-1.38,5.34-1.38s3.74.46,5.31,1.38c1.57.92,2.8,2.18,3.71,3.77.91,1.59,1.36,3.41,1.36,5.46s-.45,3.87-1.36,5.46c-.91,1.59-2.14,2.85-3.71,3.77-1.57.92-3.34,1.38-5.31,1.38ZM298.82,71.66c1.22,0,2.31-.3,3.26-.91.96-.61,1.71-1.44,2.25-2.49.54-1.05.8-2.23.78-3.56.03-1.35-.23-2.55-.78-3.6-.54-1.05-1.3-1.87-2.25-2.47-.96-.6-2.05-.89-3.26-.89s-2.31.3-3.28.91c-.97.61-1.73,1.44-2.27,2.49-.54,1.05-.8,2.23-.78,3.56-.03,1.32.23,2.51.78,3.56s1.3,1.88,2.27,2.49c.97.61,2.07.91,3.28.91Z"/>
    <path class="cls-2" d="M313.55,74.93v-20.4h4v4.2l-.7.47c.26-.91.76-1.74,1.52-2.51.75-.76,1.64-1.39,2.68-1.87,1.04-.48,2.1-.72,3.19-.72,1.55,0,2.85.3,3.89.91,1.04.61,1.81,1.54,2.33,2.78.52,1.24.78,2.81.78,4.7v12.44h-4v-12.17c0-1.17-.16-2.13-.47-2.9-.31-.76-.79-1.32-1.44-1.67-.65-.35-1.45-.5-2.41-.45-.78,0-1.49.12-2.14.37-.65.25-1.21.59-1.69,1.03-.48.44-.86.95-1.13,1.54-.27.58-.41,1.21-.41,1.89v12.36h-4Z"/>
    <path class="cls-2" d="M356.73,75.31c-2,0-3.78-.46-5.34-1.38-1.57-.92-2.81-2.18-3.71-3.77-.91-1.59-1.36-3.41-1.36-5.46s.45-3.87,1.36-5.46c.91-1.59,2.14-2.85,3.71-3.77,1.57-.92,3.35-1.38,5.34-1.38s3.74.46,5.31,1.38c1.57.92,2.8,2.18,3.71,3.77.91,1.59,1.36,3.41,1.36,5.46s-.45,3.87-1.36,5.46c-.91,1.59-2.14,2.85-3.71,3.77-1.57.92-3.34,1.38-5.31,1.38ZM356.73,71.66c1.22,0,2.31-.3,3.26-.91.96-.61,1.71-1.44,2.25-2.49.54-1.05.8-2.23.78-3.56.03-1.35-.23-2.55-.78-3.6-.54-1.05-1.3-1.87-2.25-2.47-.96-.6-2.05-.89-3.26-.89s-2.31.3-3.28.91c-.97.61-1.73,1.44-2.27,2.49-.54,1.05-.8,2.23-.78,3.56-.03,1.32.23,2.51.78,3.56s1.3,1.88,2.27,2.49c.97.61,2.07.91,3.28.91Z"/>
    <path class="cls-2" d="M369.63,58.56v-3.69h12.13v3.69h-12.13ZM372.9,74.93v-22.7c0-1.17.26-2.2.78-3.11.52-.91,1.23-1.62,2.14-2.14.91-.52,1.96-.78,3.15-.78.83,0,1.61.16,2.33.47.72.31,1.31.73,1.75,1.24l-1.36,3.07c-.34-.31-.71-.56-1.11-.76s-.78-.29-1.15-.29c-.54,0-1,.08-1.38.25-.38.17-.65.43-.83.78-.18.35-.27.77-.27,1.26v22.7h-4.04Z"/>
    <path class="cls-2" d="M141.96,115.93v-5.56h4.59v-16.09h-4.59v-5.56h15.82v5.56h-4.62v16.09h4.62v5.56h-15.82Z"/>
    <path class="cls-2" d="M163.45,115.93v-20.4h4v4.2l-.7.47c.26-.91.76-1.74,1.52-2.51.75-.76,1.64-1.39,2.68-1.87,1.04-.48,2.1-.72,3.19-.72,1.55,0,2.85.3,3.89.91,1.04.61,1.81,1.54,2.33,2.78.52,1.24.78,2.81.78,4.7v12.44h-4v-12.17c0-1.17-.16-2.13-.47-2.9-.31-.76-.79-1.32-1.44-1.67-.65-.35-1.45-.5-2.41-.45-.78,0-1.49.12-2.14.37s-1.21.59-1.69,1.03c-.48.44-.86.95-1.13,1.54-.27.58-.41,1.21-.41,1.88v12.36h-4Z"/>
    <path class="cls-2" d="M185.53,99.56v-3.69h12.13v3.69h-12.13ZM188.79,115.93v-22.7c0-1.17.26-2.2.78-3.11.52-.91,1.23-1.62,2.14-2.14.91-.52,1.96-.78,3.15-.78.83,0,1.61.16,2.33.47.72.31,1.31.73,1.75,1.24l-1.36,3.07c-.34-.31-.71-.56-1.11-.76s-.78-.29-1.15-.29c-.54,0-1,.08-1.38.25-.38.17-.65.43-.83.78-.18.35-.27.77-.27,1.26v22.7h-4.04Z"/>
    <path class="cls-2" d="M210.25,116.31c-2,0-3.78-.46-5.34-1.38-1.57-.92-2.81-2.18-3.71-3.77-.91-1.59-1.36-3.41-1.36-5.46s.45-3.87,1.36-5.46c.91-1.59,2.14-2.85,3.71-3.77,1.57-.92,3.35-1.38,5.34-1.38s3.74.46,5.31,1.38c1.57.92,2.8,2.18,3.71,3.77s1.36,3.41,1.36,5.46-.45,3.87-1.36,5.46c-.91,1.59-2.14,2.85-3.71,3.77-1.57.92-3.34,1.38-5.31,1.38ZM210.25,112.66c1.22,0,2.31-.3,3.26-.91.96-.61,1.71-1.44,2.25-2.49.54-1.05.8-2.23.78-3.56.03-1.35-.23-2.55-.78-3.59-.54-1.05-1.3-1.87-2.25-2.47-.96-.6-2.05-.89-3.26-.89s-2.31.3-3.28.91c-.97.61-1.73,1.44-2.27,2.49-.54,1.05-.8,2.24-.78,3.56-.03,1.32.23,2.51.78,3.56.54,1.05,1.3,1.88,2.27,2.49s2.07.91,3.28.91Z"/>
    <path class="cls-2" d="M224.98,115.93v-20.4h4.04v6.41l-.39-1.55c.28-.98.77-1.88,1.46-2.68.69-.8,1.48-1.44,2.37-1.9.89-.47,1.82-.7,2.78-.7.44,0,.86.04,1.26.12.4.08.72.17.95.27l-1.05,4.35c-.31-.13-.65-.24-1.03-.33-.38-.09-.75-.14-1.11-.14-.7,0-1.37.14-2,.41-.64.27-1.19.65-1.67,1.13s-.86,1.04-1.15,1.67c-.29.64-.43,1.33-.43,2.08v11.27h-4.04Z"/>
    <path class="cls-2" d="M240.56,115.93v-20.4h4.04v4.35l-.74.47c.21-.67.54-1.32.99-1.94.45-.62,1.01-1.17,1.67-1.65.66-.48,1.37-.86,2.14-1.15.76-.28,1.55-.43,2.35-.43,1.17,0,2.19.19,3.07.58s1.61.97,2.18,1.75c.57.78.98,1.75,1.24,2.92l-.62-.16.27-.66c.29-.6.68-1.16,1.19-1.69.5-.53,1.08-1,1.73-1.42.65-.42,1.33-.74,2.06-.97.73-.23,1.44-.35,2.14-.35,1.53,0,2.79.31,3.79.93,1,.62,1.75,1.57,2.25,2.84s.76,2.85.76,4.74v12.24h-4.04v-12.01c0-1.17-.15-2.12-.45-2.86s-.75-1.29-1.34-1.65c-.6-.36-1.36-.54-2.29-.54-.73,0-1.41.12-2.04.37-.64.25-1.19.59-1.65,1.03-.47.44-.83.95-1.09,1.54-.26.58-.39,1.22-.39,1.92v12.2h-4.04v-12.09c0-1.06-.16-1.96-.47-2.7-.31-.74-.76-1.3-1.36-1.69s-1.32-.58-2.18-.58c-.73,0-1.4.12-2.02.37-.62.25-1.17.58-1.63,1.01-.47.43-.83.93-1.09,1.52-.26.58-.39,1.21-.39,1.89v12.28h-4.04Z"/>
    <path class="cls-2" d="M284.29,116.31c-1.68,0-3.22-.47-4.61-1.4-1.39-.93-2.49-2.2-3.32-3.81-.83-1.61-1.24-3.42-1.24-5.44s.42-3.87,1.26-5.46c.84-1.59,1.98-2.84,3.42-3.75,1.44-.91,3.05-1.36,4.84-1.36,1.06,0,2.03.16,2.92.47.88.31,1.65.75,2.31,1.3s1.21,1.2,1.63,1.92c.43.73.69,1.5.8,2.33l-.89-.31v-5.29h4.04v20.4h-4.04v-4.86l.93-.27c-.16.7-.47,1.38-.95,2.04s-1.09,1.25-1.83,1.77c-.74.52-1.55.93-2.45,1.24-.89.31-1.83.47-2.82.47ZM285.33,112.62c1.22,0,2.29-.3,3.23-.89s1.66-1.42,2.2-2.47c.53-1.05.8-2.25.8-3.59s-.27-2.5-.8-3.54c-.53-1.04-1.26-1.85-2.2-2.45-.93-.6-2.01-.89-3.23-.89s-2.25.3-3.17.89c-.92.6-1.65,1.41-2.18,2.45-.53,1.04-.8,2.22-.8,3.54s.27,2.55.8,3.59c.53,1.05,1.26,1.87,2.18,2.47.92.6,1.98.89,3.17.89Z"/>
    <path class="cls-2" d="M299.33,99.41v-3.89h12.98v3.89h-12.98ZM303.56,115.93v-25.61h4v25.61h-4Z"/>
    <path class="cls-2" d="M318.57,91.01c-.86,0-1.52-.22-1.98-.66-.47-.44-.7-1.06-.7-1.87,0-.75.24-1.36.72-1.83s1.13-.7,1.96-.7,1.52.22,1.98.66c.47.44.7,1.06.7,1.87,0,.75-.24,1.36-.72,1.83s-1.13.7-1.96.7ZM316.62,115.93v-20.4h4v20.4h-4Z"/>
    <path class="cls-2" d="M335.94,116.31c-2,0-3.78-.46-5.34-1.38-1.57-.92-2.81-2.18-3.71-3.77-.91-1.59-1.36-3.41-1.36-5.46s.45-3.87,1.36-5.46c.91-1.59,2.14-2.85,3.71-3.77,1.57-.92,3.35-1.38,5.34-1.38s3.74.46,5.31,1.38c1.57.92,2.8,2.18,3.71,3.77s1.36,3.41,1.36,5.46-.45,3.87-1.36,5.46c-.91,1.59-2.14,2.85-3.71,3.77-1.57.92-3.34,1.38-5.31,1.38ZM335.94,112.66c1.22,0,2.31-.3,3.26-.91.96-.61,1.71-1.44,2.25-2.49.54-1.05.8-2.23.78-3.56.03-1.35-.23-2.55-.78-3.59-.54-1.05-1.3-1.87-2.25-2.47-.96-.6-2.05-.89-3.26-.89s-2.31.3-3.28.91c-.97.61-1.73,1.44-2.27,2.49-.54,1.05-.8,2.24-.78,3.56-.03,1.32.23,2.51.78,3.56.54,1.05,1.3,1.88,2.27,2.49s2.07.91,3.28.91Z"/>
    <path class="cls-2" d="M350.67,115.93v-20.4h4v4.2l-.7.47c.26-.91.76-1.74,1.52-2.51.75-.76,1.64-1.39,2.68-1.87,1.04-.48,2.1-.72,3.19-.72,1.55,0,2.85.3,3.89.91,1.04.61,1.81,1.54,2.33,2.78.52,1.24.78,2.81.78,4.7v12.44h-4v-12.17c0-1.17-.16-2.13-.47-2.9-.31-.76-.79-1.32-1.44-1.67-.65-.35-1.45-.5-2.41-.45-.78,0-1.49.12-2.14.37s-1.21.59-1.69,1.03c-.48.44-.86.95-1.13,1.54-.27.58-.41,1.21-.41,1.88v12.36h-4Z"/>
  </g>
</svg>